<?xml version="1.0" encoding="utf-8"?>
<svg width="76px" height="52px" viewBox="0 0 76 52" version="1.1" xmlns:xlink="http://www.w3.org/1999/xlink" xmlns="http://www.w3.org/2000/svg">
  <g id="flag-eu-yellow">
    <path d="M75.5852 0L0 0L0 51.34L75.5852 51.34L75.5852 0ZM74.1295 1.40689L1.45295 1.40689L1.45295 49.8588L74.1295 49.8588L74.1295 1.40689Z" id="Rectangle-Difference" fill="#81A3AD" fill-rule="evenodd" stroke="none" />
    <path d="M0.973801 4.76139L2.50626 3.64152L4.04129 4.76139L3.457 2.95217L5.01509 1.83229L3.09567 1.83229L2.50626 0L1.91942 1.83485L0 1.83229L1.55809 2.95217L0.973801 4.76139L0.973801 4.76139Z" transform="translate(35.26953 7.2035904)" id="Polygon" fill="#81A3AD" fill-rule="evenodd" stroke="none" />
    <path d="M0.973803 4.76396L2.50626 3.64408L4.04129 4.76396L3.457 2.95473L5.01509 1.83485L3.09311 1.83485L2.50626 0L1.91942 1.83742L0 1.83485L1.55552 2.95473L0.973803 4.76396L0.973803 4.76396Z" transform="translate(27.333984 9.333149)" id="Polygon" fill="#81A3AD" fill-rule="evenodd" stroke="none" />
    <path d="M2.50627 0L1.91942 1.83742L0 1.83485L1.55809 2.95473L0.973806 4.76395L2.50627 3.64408L4.04129 4.76395L3.45701 2.95473L5.01509 1.83485L3.09567 1.83485L2.50627 0L2.50627 0Z" transform="translate(21.526367 15.152908)" id="Polygon" fill="#81A3AD" fill-rule="evenodd" stroke="none" />
    <path d="M2.50626 3.64408L4.03872 4.76396L3.45701 2.95473L5.01253 1.83485L3.09567 1.83485L2.50626 0L1.91942 1.83742L0 1.83485L1.55809 2.95473L0.973803 4.76396L2.50626 3.64408L2.50626 3.64408Z" transform="translate(19.396484 23.079163)" id="Polygon" fill="#81A3AD" fill-rule="evenodd" stroke="none" />
    <path d="M3.09567 1.83229L2.50627 0L1.91942 1.83485L0 1.83229L1.55809 2.95217L0.973806 4.76139L2.50627 3.64152L4.04129 4.76139L3.45701 2.95217L5.01509 1.83229L3.09567 1.83229L3.09567 1.83229Z" transform="translate(21.526367 31.031052)" id="Polygon" fill="#81A3AD" fill-rule="evenodd" stroke="none" />
    <path d="M3.09311 1.82973L2.50627 0L1.91942 1.83229L0 1.82973L1.55552 2.9496L0.973806 4.76139L2.50627 3.64151L4.03873 4.76139L3.45701 2.9496L5.01253 1.82973L3.09311 1.82973L3.09311 1.82973Z" transform="translate(27.345703 36.850815)" id="Polygon" fill="#81A3AD" fill-rule="evenodd" stroke="none" />
    <path d="M3.09311 1.83229L2.50627 0L1.91942 1.83485L0 1.83229L1.55553 2.95216L0.973806 4.76139L2.50627 3.64152L4.03873 4.76139L3.45701 2.95216L5.01253 1.83229L3.09311 1.83229L3.09311 1.83229Z" transform="translate(35.27246 38.957314)" id="Polygon" fill="#81A3AD" fill-rule="evenodd" stroke="none" />
    <path d="M3.09311 1.82973L2.50627 0L1.91942 1.83229L0 1.82973L1.55552 2.9496L0.973802 4.76139L2.50627 3.64151L4.04129 4.76139L3.457 2.9496L5.01253 1.82973L3.09311 1.82973L3.09311 1.82973Z" transform="translate(43.19922 36.850815)" id="Polygon" fill="#81A3AD" fill-rule="evenodd" stroke="none" />
    <path d="M3.09567 1.83229L2.50883 0L1.91942 1.83485L0 1.83229L1.55809 2.95217L0.973805 4.76139L2.50883 3.64152L4.04129 4.76139L3.457 2.95217L5.01509 1.83229L3.09567 1.83229L3.09567 1.83229Z" transform="translate(49.015625 31.031052)" id="Polygon" fill="#81A3AD" fill-rule="evenodd" stroke="none" />
    <path d="M5.01509 1.83229L3.09567 1.83229L2.50626 0L1.91942 1.83485L0 1.83229L1.55809 2.95216L0.976366 4.76139L2.50626 3.64152L4.04129 4.76139L3.457 2.95216L5.01509 1.83229L5.01509 1.83229Z" transform="translate(51.12207 23.058662)" id="Polygon" fill="#81A3AD" fill-rule="evenodd" stroke="none" />
    <path d="M0.973805 4.76139L2.50883 3.64152L4.04129 4.76139L3.457 2.9496L5.01509 1.83229L3.09567 1.83229L2.50883 0L1.91942 1.83485L0 1.83229L1.55809 2.9496L0.973805 4.76139L0.973805 4.76139Z" transform="translate(49.015625 15.132408)" id="Polygon" fill="#81A3AD" fill-rule="evenodd" stroke="none" />
    <path d="M2.50626 0L1.91942 1.83485L0 1.83229L1.55552 2.95217L0.97124 4.76395L2.50626 3.64152L4.03872 4.76395L3.457 2.95217L5.01509 1.83229L3.09311 1.83229L2.50626 0L2.50626 0Z" transform="translate(43.22168 9.335709)" id="Polygon" fill="#81A3AD" fill-rule="evenodd" stroke="none" />
  </g>
</svg>